# Wavefront Obj file
# 
# verts: 32 uv-s: 72
mtllib Tur1.mtl

g Box002

v 0.257100 0.031500 0.173800
v 0.257100 0.000000 0.173800
v 0.604700 0.000000 0.173800
v 0.604700 0.031500 0.173800
v 0.257100 0.031500 -0.173800
v 0.604700 0.031500 -0.173800
v 0.604700 0.000000 -0.173800
v 0.257100 0.000000 -0.173800
v 0.541600 0.070000 0.110800
v 0.320100 0.070000 0.110800
v 0.541600 0.070000 -0.110800
v 0.320100 0.070000 -0.110800
v 0.531800 0.107300 0.100900
v 0.329900 0.107300 0.100900
v 0.531800 0.107300 -0.100900
v 0.329900 0.107300 -0.100900
v 0.492500 0.107300 0.061600
v 0.369300 0.107300 0.061600
v 0.492500 0.107300 -0.061600
v 0.369300 0.107300 -0.061600
v 0.492500 2.071600 0.061600
v 0.369300 2.071600 0.061600
v 0.492500 2.071600 -0.061600
v 0.369300 2.071600 -0.061600
v 0.450200 2.071600 0.019300
v 0.411500 2.071600 0.019300
v 0.450200 2.071600 -0.019300
v 0.411500 2.071600 -0.019300
v 0.450200 2.202600 0.019300
v 0.411500 2.202600 0.019300
v 0.450200 2.202600 -0.019300
v 0.411500 2.202600 -0.019300
# 32 positions

vt 0.814200 0.062300
vt 0.814200 0.078300
vt 0.638300 0.078300
vt 0.638300 0.062300
vt 0.286500 0.062300
vt 0.462400 0.062300
vt 0.462400 0.078300
vt 0.286500 0.078300
vt 0.504400 0.684900
vt 0.504400 0.509000
vt 0.680300 0.509000
vt 0.680300 0.684900
vt 0.990100 0.062300
vt 0.990100 0.078300
vt 0.687600 0.491000
vt 0.508000 0.491000
vt 0.542700 0.456500
vt 0.653000 0.456500
vt 0.508000 0.313000
vt 0.542700 0.347600
vt 0.687600 0.313000
vt 0.653000 0.347600
vt 0.421700 0.684100
vt 0.421700 0.576300
vt 0.442000 0.576300
vt 0.442000 0.684100
vt 0.421700 0.468400
vt 0.442000 0.468400
vt 0.421700 0.358900
vt 0.442000 0.358900
vt 0.421700 0.786900
vt 0.442000 0.786900
vt 0.874300 0.468700
vt 0.772100 0.468700
vt 0.792000 0.448800
vt 0.854300 0.448800
vt 0.772100 0.366600
vt 0.792000 0.386500
vt 0.874300 0.366600
vt 0.854300 0.386500
vt 0.195400 0.998000
vt 0.133100 0.998500
vt 0.125200 0.004500
vt 0.187500 0.004000
vt 0.070700 0.999000
vt 0.062800 0.005000
vt 0.008400 0.999500
vt 0.000500 0.005500
vt 0.257700 0.997500
vt 0.249800 0.003500
vt 0.650800 0.218100
vt 0.650800 0.280400
vt 0.629500 0.259100
vt 0.629500 0.239500
vt 0.588500 0.280400
vt 0.609900 0.259100
vt 0.588500 0.218100
vt 0.609900 0.239500
vt 0.832600 0.297000
vt 0.813000 0.297000
vt 0.813000 0.230800
vt 0.832600 0.230800
vt 0.793500 0.297000
vt 0.793500 0.230800
vt 0.773900 0.297000
vt 0.773900 0.230800
vt 0.852200 0.297000
vt 0.852200 0.230800
vt 0.444100 0.254800
vt 0.444100 0.235200
vt 0.463700 0.235200
vt 0.463700 0.254800
# 72 texture coordinates

vn 0.000000 0.000000 1.000000
vn 0.000000 0.000000 -1.000000
vn 1.000000 0.000000 0.000000
vn 0.000000 -1.000000 0.000000
vn -1.000000 0.000000 0.000000
vn 0.000000 0.853282 0.521450
vn 0.520848 0.853650 0.000000
vn 0.000000 0.853282 -0.521450
vn -0.521450 0.853282 0.000000
vn 0.000000 0.256533 0.966535
vn 0.967175 0.254111 0.000000
vn 0.000000 0.256533 -0.966535
vn -0.967175 0.254110 0.000000
vn 0.000000 1.000000 0.000000
vn 0.000000 0.000000 -1.000000
vn 0.000000 1.000000 0.000000
# 16 normals

usemtl wire_086086086
f 1/1/1 2/2/1 3/3/1 4/4/1
f 5/5/2 6/6/2 7/7/2 8/8/2
f 4/4/3 3/3/3 7/7/3 6/6/3
f 3/9/4 2/10/4 8/11/4 7/12/4
f 2/2/5 1/1/5 5/13/5 8/14/5
f 1/15/6 4/16/6 9/17/6 10/18/6
f 4/16/7 6/19/7 11/20/7 9/17/7
f 6/19/8 5/21/8 12/22/8 11/20/8
f 5/21/9 1/15/9 10/18/9 12/22/9
f 10/23/10 9/24/10 13/25/10 14/26/10
f 9/24/11 11/27/11 15/28/11 13/25/11
f 11/27/12 12/29/12 16/30/12 15/28/12
f 12/31/13 10/23/13 14/26/13 16/32/13
f 14/33/14 13/34/14 17/35/14 18/36/14
f 13/34/14 15/37/14 19/38/14 17/35/14
f 15/37/14 16/39/14 20/40/14 19/38/14
f 16/39/14 14/33/14 18/36/14 20/40/14
f 18/41/1 17/42/1 21/43/1 22/44/1
f 17/42/3 19/45/3 23/46/3 21/43/3
f 19/45/15 20/47/15 24/48/15 23/46/15
f 20/49/5 18/41/5 22/44/5 24/50/5
f 22/51/16 21/52/16 25/53/16 26/54/16
f 21/52/16 23/55/16 27/56/16 25/53/16
f 23/55/16 24/57/14 28/58/14 27/56/16
f 24/57/14 22/51/16 26/54/16 28/58/14
f 26/59/1 25/60/1 29/61/1 30/62/1
f 25/60/3 27/63/3 31/64/3 29/61/3
f 27/63/2 28/65/2 32/66/2 31/64/2
f 28/67/5 26/59/5 30/62/5 32/68/5
f 32/69/14 30/70/14 29/71/14 31/72/14

# 30 faces
